<?xml version="1.0" encoding="utf-8"?>
<!-- Generator: Adobe Illustrator 23.0.3, SVG Export Plug-In . SVG Version: 6.00 Build 0)  -->
<svg version="1.2" baseProfile="tiny" id="Layer_1" xmlns="http://www.w3.org/2000/svg" xmlns:xlink="http://www.w3.org/1999/xlink"
	 x="0px" y="0px" viewBox="0 0 100 100" xml:space="preserve">
<g id="XMLID_2_">
	<g>
		<path fill="#131210" d="M34.02,63.85c5.91,0,10.7,4.79,10.7,10.69s-4.79,10.7-10.7,10.7s-10.7-4.79-10.7-10.7
			S28.12,63.85,34.02,63.85z"/>
		<path fill="#131210" d="M87.97,33.91c4.58,10.28,4.57,22.32,3.39,22.6c-0.29,0.07-0.7-0.57-1.03-1.18
			c-0.5-1.38-1.22-3.25-2.18-5.45c-1.53-3.5-2.29-5.25-3.36-6.84c-1.79-2.66-3.04-3.4-4.51-6.17c-0.13-0.24-0.53-1.01-1.18-1.99
			c-0.74-1.1-1.4-2.07-2.54-2.95c-0.79-0.6-1.53-1.17-2.51-1.18c-1.29-0.02-2.26,0.92-2.63,1.27c-3.01,2.82-6.48,4.54-9.23,5.99
			c-0.49,0.26-1.96,1.02-3.99,1.79c-1.91,0.72-3.37,1.27-5.27,1.48c-1.17,0.13-3.95,0.45-6.54-0.76c-2.04-0.95-2.63-2.23-4.9-5.08
			c-3.89-4.88-5.83-7.32-8.05-7.81c-3.19-0.71-6.65,1.32-11.2,4c-1.25,0.74-2.27,1.45-2.78,1.82c-2.49,1.79-4.34,3.57-5.61,4.93
			c-3.46,4.8-4.53,5.61-4.86,5.42c-1.04-0.59,2.25-12.84,11.6-22.23c3.26-3.28,10.13-9.09,20.66-11.38
			c3.29-0.71,12.5-2.29,23.08,1.61C65.83,12.35,80.98,18.21,87.97,33.91z M65.82,22.85c0-5.91-4.79-10.69-10.69-10.69
			s-10.7,4.79-10.7,10.69s4.79,10.7,10.7,10.7S65.82,28.75,65.82,22.85z"/>
	</g>
	<g>
		<path fill="none" stroke="#000000" stroke-width="0.3094" stroke-miterlimit="10" d="M8.98,43.79
			c-1.04-0.59,2.25-12.84,11.6-22.23c3.26-3.28,10.13-9.09,20.66-11.38c3.29-0.71,12.5-2.29,23.08,1.61
			c1.5,0.55,16.65,6.41,23.65,22.11c4.58,10.28,4.57,22.32,3.39,22.6c-0.29,0.07-0.7-0.57-1.03-1.18c-0.5-1.38-1.22-3.25-2.18-5.45
			c-1.53-3.5-2.29-5.25-3.36-6.84c-1.79-2.66-3.04-3.4-4.51-6.17c-0.13-0.24-0.53-1.01-1.18-1.99c-0.74-1.1-1.4-2.07-2.54-2.95
			c-0.79-0.6-1.53-1.17-2.51-1.18c-1.29-0.02-2.26,0.92-2.63,1.27c-3.01,2.82-6.48,4.54-9.23,5.99c-0.49,0.26-1.96,1.02-3.99,1.79
			c-1.91,0.72-3.37,1.27-5.27,1.48c-1.17,0.13-3.95,0.45-6.54-0.76c-2.04-0.95-2.63-2.23-4.9-5.08c-3.89-4.88-5.83-7.32-8.05-7.81
			c-3.19-0.71-6.65,1.32-11.2,4c-1.25,0.74-2.27,1.45-2.78,1.82c-2.49,1.79-4.34,3.57-5.61,4.93C10.39,43.17,9.31,43.98,8.98,43.79z
			"/>
		<path fill="none" stroke="#000000" stroke-width="0.9281" stroke-miterlimit="10" d="M89.91,62.92c0.87,0.7-2.33,6-3.63,8.17
			c-1.81,3.01-3.08,5.12-5.2,7.57c-1.35,1.55-5.97,6.62-13.84,10.17c-2.27,1.02-8.2,3.45-16.24,3.63
			c-9.92,0.23-17.19-3.09-19.19-4.05c-15.35-7.43-21.72-22.68-23-30.75c-0.07-0.46-1.05-6.61-0.24-6.82
			c0.42-0.11,1.02,1.46,1.94,3.03c0.53,0.91,4.31,7.23,10.83,9.06c4.37,1.23,8.57,0.04,9.23-0.15c2.78-0.82,3.73-1.93,6.63-2.06
			c0.79-0.03,3.34-0.11,5.84,1.3c2.15,1.22,3.03,2.85,4.02,4.18c3.83,5.1,10.18,6.7,11.59,7.05c6.09,1.53,11.48-0.65,14.59-1.91
			c9.33-3.77,14.12-7.23,14.12-7.23C88.07,63.59,89.46,62.55,89.91,62.92z"/>
		<path fill="none" stroke="#000000" stroke-width="0.3094" stroke-miterlimit="10" d="M44.72,74.54c0,5.91-4.79,10.7-10.7,10.7
			s-10.7-4.79-10.7-10.7s4.79-10.69,10.7-10.69S44.72,68.64,44.72,74.54z"/>
		<path fill="none" stroke="#000000" stroke-width="0.3094" stroke-miterlimit="10" d="M65.82,22.85c0,5.91-4.79,10.7-10.69,10.7
			s-10.7-4.79-10.7-10.7s4.79-10.69,10.7-10.69S65.82,16.94,65.82,22.85z"/>
	</g>
</g>
<path fill="none" stroke="#3B6D5C" stroke-width="2.475" stroke-miterlimit="10" d="M97.5,50.86c0,26.07-21.14,47.21-47.21,47.21
	c-26.08,0-47.21-21.14-47.21-47.21c0-26.08,21.14-47.21,47.21-47.21C76.36,3.64,97.5,24.78,97.5,50.86z"/>
</svg>
